<svg xmlns="http://www.w3.org/2000/svg" viewBox="0 0 900 600">
  <defs>
    <linearGradient id="cardBg" x1="0" y1="0" x2="1" y2="1">
      <stop offset="0%" stop-color="#c7d2fe"/>
      <stop offset="100%" stop-color="#e2e8f0"/>
    </linearGradient>
  </defs>
  <rect width="900" height="600" rx="40" fill="url(#cardBg)"/>
  <rect x="60" y="80" width="780" height="440" rx="32" fill="#ffffff"/>
  <rect x="100" y="130" width="260" height="28" rx="14" fill="#1da1b5"/>
  <rect x="100" y="180" width="560" height="22" rx="11" fill="#475569" opacity="0.5"/>
  <rect x="100" y="220" width="380" height="22" rx="11" fill="#475569" opacity="0.4"/>
  <rect x="100" y="270" width="540" height="180" rx="24" fill="#f8fafc"/>
  <rect x="130" y="310" width="200" height="26" rx="13" fill="#0f172a" opacity="0.7"/>
  <rect x="130" y="350" width="300" height="22" rx="11" fill="#0f172a" opacity="0.4"/>
  <rect x="130" y="390" width="240" height="22" rx="11" fill="#0f172a" opacity="0.4"/>
  <circle cx="700" cy="220" r="60" fill="#1da1b5" opacity="0.7"/>
  <rect x="660" y="300" width="120" height="120" rx="20" fill="#e2e8f0"/>
  <rect x="680" y="330" width="80" height="24" rx="12" fill="#0f172a" opacity="0.7"/>
  <rect x="680" y="370" width="80" height="24" rx="12" fill="#0f172a" opacity="0.4"/>
</svg>
