<svg xmlns="http://www.w3.org/2000/svg" viewBox="0 0 1200 900">
  <defs>
    <linearGradient id="bg" x1="0" y1="0" x2="1" y2="1">
      <stop offset="0%" stop-color="#0f172a"/>
      <stop offset="100%" stop-color="#1da1b5"/>
    </linearGradient>
    <linearGradient id="screen" x1="0" y1="0" x2="1" y2="1">
      <stop offset="0%" stop-color="#e2e8f0"/>
      <stop offset="100%" stop-color="#f8fafc"/>
    </linearGradient>
  </defs>
  <rect width="1200" height="900" rx="40" fill="url(#bg)"/>
  <rect x="120" y="140" width="960" height="560" rx="40" fill="#0f172a" opacity="0.95"/>
  <rect x="150" y="180" width="900" height="420" rx="30" fill="url(#screen)"/>
  <rect x="180" y="220" width="380" height="40" rx="20" fill="#0f172a" opacity="0.4"/>
  <rect x="180" y="290" width="240" height="28" rx="14" fill="#0f172a" opacity="0.3"/>
  <rect x="180" y="340" width="730" height="300" rx="24" fill="#ffffff"/>
  <rect x="220" y="380" width="420" height="32" rx="16" fill="#1da1b5"/>
  <rect x="220" y="430" width="540" height="26" rx="13" fill="#94a3b8"/>
  <rect x="220" y="470" width="260" height="26" rx="13" fill="#94a3b8"/>
  <rect x="220" y="530" width="580" height="120" rx="20" fill="#f1f5f9"/>
  <rect x="260" y="560" width="220" height="24" rx="12" fill="#0f172a" opacity="0.7"/>
  <rect x="260" y="600" width="340" height="24" rx="12" fill="#0f172a" opacity="0.35"/>
  <rect x="260" y="640" width="180" height="24" rx="12" fill="#0f172a" opacity="0.35"/>
  <circle cx="420" cy="780" r="40" fill="#e2e8f0"/>
  <rect x="490" y="760" width="240" height="40" rx="20" fill="#f8fafc"/>
  <text x="600" y="820" fill="#ffffff" font-family="Inter, sans-serif" font-size="48" font-weight="700" text-anchor="middle">Web Design</text>
</svg>
