<svg xmlns="http://www.w3.org/2000/svg" viewBox="0 0 1200 900">
  <defs>
    <linearGradient id="portBg" x1="0" y1="0" x2="1" y2="1">
      <stop offset="0%" stop-color="#111827"/>
      <stop offset="100%" stop-color="#0f172a"/>
    </linearGradient>
  </defs>
  <rect width="1200" height="900" rx="40" fill="url(#portBg)"/>
  <rect x="120" y="150" width="960" height="540" rx="40" fill="#ffffff14"/>
  <rect x="180" y="220" width="360" height="56" rx="28" fill="#1da1b5"/>
  <rect x="180" y="300" width="700" height="28" rx="14" fill="#f8fafc" opacity="0.8"/>
  <rect x="180" y="350" width="520" height="220" rx="30" fill="#e2e8f0"/>
  <rect x="220" y="390" width="300" height="28" rx="14" fill="#0f172a" opacity="0.7"/>
  <rect x="220" y="440" width="420" height="20" rx="10" fill="#0f172a" opacity="0.4"/>
  <rect x="220" y="480" width="260" height="20" rx="10" fill="#0f172a" opacity="0.4"/>
  <rect x="720" y="390" width="260" height="180" rx="24" fill="#ffffff10"/>
  <rect x="760" y="430" width="170" height="20" rx="10" fill="#dbeafe"/>
  <rect x="760" y="470" width="120" height="20" rx="10" fill="#dbeafe"/>
  <rect x="760" y="510" width="180" height="20" rx="10" fill="#dbeafe"/>
  <text x="600" y="780" fill="#ffffff" font-family="Inter, sans-serif" font-size="56" font-weight="700" text-anchor="middle">Calures.org</text>
</svg>
